{
  "accessors": [
    {
      "bufferView": 2,
      "componentType": 5126,
      "count": 65532,
      "max": [
        0.0006499290466308594,
        -0.4696454405784607,
        -1.054243564605713
      ],
      "min": [
        -0.45379680395126343,
        -1.0656229257583618,
        -1.6356233358383179
      ],
      "type": "VEC3"
    },
    {
      "bufferView": 2,
      "byteOffset": 786384,
      "componentType": 5126,
      "count": 65532,
      "max": [
        0.999954879283905,
        0.9999893307685852,
        0.9999675750732422
      ],
      "min": [
        -0.9999900460243225,
        -0.9973548054695129,
        -0.9999194741249084
      ],
      "type": "VEC3"
    },
    {
      "bufferView": 1,
      "componentType": 5126,
      "count": 65532,
      "max": [
        0.9992057085037231,
        0.9994709491729736
      ],
      "min": [
        0.00048828125,
        0.05126965045928955
      ],
      "type": "VEC2"
    },
    {
      "bufferView": 0,
      "componentType": 5125,
      "count": 255234,
      "type": "SCALAR"
    },
    {
      "bufferView": 2,
      "byteOffset": 1572768,
      "componentType": 5126,
      "count": 65533,
      "max": [
        -0.05253371596336365,
        -0.4696454405784607,
        -1.0729191303253174
      ],
      "min": [
        -0.45379680395126343,
        -1.000356674194336,
        -1.6338703632354736
      ],
      "type": "VEC3"
    },
    {
      "bufferView": 2,
      "byteOffset": 2359164,
      "componentType": 5126,
      "count": 65533,
      "max": [
        0.999879002571106,
        0.9999780654907227,
        0.9999719858169556
      ],
      "min": [
        -0.999997079372406,
        -0.9994778037071228,
        -0.9998230934143066
      ],
      "type": "VEC3"
    },
    {
      "bufferView": 1,
      "byteOffset": 524256,
      "componentType": 5126,
      "count": 65533,
      "max": [
        0.9994438886642456,
        0.9994857311248779
      ],
      "min": [
        0.00048828125,
        0.05126965045928955
      ],
      "type": "VEC2"
    },
    {
      "bufferView": 0,
      "byteOffset": 1020936,
      "componentType": 5125,
      "count": 206220,
      "type": "SCALAR"
    },
    {
      "bufferView": 2,
      "byteOffset": 3145560,
      "componentType": 5126,
      "count": 65534,
      "max": [
        -0.00992700457572937,
        -0.4602234661579132,
        -1.0728836059570313
      ],
      "min": [
        -0.4027581512928009,
        -1.010987401008606,
        -1.5776060819625854
      ],
      "type": "VEC3"
    },
    {
      "bufferView": 2,
      "byteOffset": 3931968,
      "componentType": 5126,
      "count": 65534,
      "max": [
        0.9999842047691345,
        0.9999993443489075,
        0.9999885559082031
      ],
      "min": [
        -0.9999958872795105,
        -0.9975892305374146,
        -0.9999237060546875
      ],
      "type": "VEC3"
    },
    {
      "bufferView": 1,
      "byteOffset": 1048520,
      "componentType": 5126,
      "count": 65534,
      "max": [
        0.9995073080062866,
        0.9995037913322449
      ],
      "min": [
        0.00048828125,
        0.05126965045928955
      ],
      "type": "VEC2"
    },
    {
      "bufferView": 0,
      "byteOffset": 1845816,
      "componentType": 5125,
      "count": 188625,
      "type": "SCALAR"
    },
    {
      "bufferView": 2,
      "byteOffset": 4718376,
      "componentType": 5126,
      "count": 65532,
      "max": [
        0.10317873954772949,
        -0.46952715516090393,
        -1.035030484199524
      ],
      "min": [
        -0.5427108407020569,
        -1.1781972646713257,
        -1.6876819133758545
      ],
      "type": "VEC3"
    },
    {
      "bufferView": 2,
      "byteOffset": 5504760,
      "componentType": 5126,
      "count": 65532,
      "max": [
        0.9999042749404907,
        0.9999995827674866,
        0.9999690651893616
      ],
      "min": [
        -0.9999691843986511,
        -1.0,
        -0.9999029636383057
      ],
      "type": "VEC3"
    },
    {
      "bufferView": 1,
      "byteOffset": 1572792,
      "componentType": 5126,
      "count": 65532,
      "max": [
        0.9994707703590393,
        0.9994809627532959
      ],
      "min": [
        0.00048828125,
        0.04931652545928955
      ],
      "type": "VEC2"
    },
    {
      "bufferView": 0,
      "byteOffset": 2600316,
      "componentType": 5125,
      "count": 243867,
      "type": "SCALAR"
    },
    {
      "bufferView": 2,
      "byteOffset": 6291144,
      "componentType": 5126,
      "count": 65533,
      "max": [
        0.10391247272491455,
        -0.948972225189209,
        -1.0645878314971924
      ],
      "min": [
        -0.543038010597229,
        -1.1781972646713257,
        -1.7091386318206787
      ],
      "type": "VEC3"
    },
    {
      "bufferView": 2,
      "byteOffset": 7077540,
      "componentType": 5126,
      "count": 65533,
      "max": [
        0.9999385476112366,
        0.9999995827674866,
        0.9999959468841553
      ],
      "min": [
        -0.9999746680259705,
        -0.9999985694885254,
        -0.9996775388717651
      ],
      "type": "VEC3"
    },
    {
      "bufferView": 1,
      "byteOffset": 2097048,
      "componentType": 5126,
      "count": 65533,
      "max": [
        0.9994698166847229,
        0.9994931817054749
      ],
      "min": [
        0.00048828125,
        0.04736340045928955
      ],
      "type": "VEC2"
    },
    {
      "bufferView": 0,
      "byteOffset": 3575784,
      "componentType": 5125,
      "count": 201498,
      "type": "SCALAR"
    },
    {
      "bufferView": 2,
      "byteOffset": 7863936,
      "componentType": 5126,
      "count": 65532,
      "max": [
        0.06966930627822876,
        -0.46989718079566956,
        -1.0336984395980835
      ],
      "min": [
        -0.3901974558830261,
        -1.1780848503112793,
        -1.629865288734436
      ],
      "type": "VEC3"
    },
    {
      "bufferView": 2,
      "byteOffset": 8650320,
      "componentType": 5126,
      "count": 65532,
      "max": [
        0.999933123588562,
        0.9999761581420898,
        0.9999663233757019
      ],
      "min": [
        -0.9999900460243225,
        -0.9919096231460571,
        -0.9999629855155945
      ],
      "type": "VEC3"
    },
    {
      "bufferView": 1,
      "byteOffset": 2621312,
      "componentType": 5126,
      "count": 65532,
      "max": [
        0.9995080232620239,
        0.9995049238204956
      ],
      "min": [
        0.00048828125,
        0.05322277545928955
      ],
      "type": "VEC2"
    },
    {
      "bufferView": 0,
      "byteOffset": 4381776,
      "componentType": 5125,
      "count": 163815,
      "type": "SCALAR"
    },
    {
      "bufferView": 2,
      "byteOffset": 9436704,
      "componentType": 5126,
      "count": 17576,
      "max": [
        -0.014859795570373535,
        -0.520404577255249,
        -1.0675016641616821
      ],
      "min": [
        -0.36886322498321533,
        -0.9534920454025269,
        -1.562045693397522
      ],
      "type": "VEC3"
    },
    {
      "bufferView": 2,
      "byteOffset": 9647616,
      "componentType": 5126,
      "count": 17576,
      "max": [
        0.9997926950454712,
        0.9999319314956665,
        0.9999163150787354
      ],
      "min": [
        -0.9981012344360352,
        -0.9802903532981873,
        -0.999677300453186
      ],
      "type": "VEC3"
    },
    {
      "bufferView": 1,
      "byteOffset": 3145568,
      "componentType": 5126,
      "count": 17576,
      "max": [
        0.9995064735412598,
        0.9994224309921265
      ],
      "min": [
        0.00048828125,
        0.05322277545928955
      ],
      "type": "VEC2"
    },
    {
      "bufferView": 0,
      "byteOffset": 5037036,
      "componentType": 5125,
      "count": 36945,
      "type": "SCALAR"
    }
  ],
  "asset": {
    "extras": {
      "author": "Florida Public Archaeology Network (https://sketchfab.com/fpan)",
      "license": "CC-BY-4.0 (http://creativecommons.org/licenses/by/4.0/)",
      "source": "https://sketchfab.com/3d-models/chinese-guardian-lion-statue-realityscan-8abc615ebd814a069b993f850e7f2331",
      "title": "Chinese Guardian Lion Statue- RealityScan"
    },
    "generator": "Sketchfab-12.88.0",
    "version": "2.0"
  },
  "bufferViews": [
    {
      "buffer": 0,
      "byteLength": 5184816,
      "name": "floatBufferViews",
      "target": 34963
    },
    {
      "buffer": 0,
      "byteLength": 3286176,
      "byteOffset": 5184816,
      "byteStride": 8,
      "name": "floatBufferViews",
      "target": 34962
    },
    {
      "buffer": 0,
      "byteLength": 9858528,
      "byteOffset": 8470992,
      "byteStride": 12,
      "name": "floatBufferViews",
      "target": 34962
    }
  ],
  "buffers": [
    {
      "byteLength": 18329520,
      "uri": "scene.bin"
    }
  ],
  "extensionsUsed": [
    "KHR_materials_unlit"
  ],
  "images": [
    {
      "uri": "textures/default_tex0_baseColor.jpeg"
    }
  ],
  "materials": [
    {
      "extensions": {
        "KHR_materials_unlit": {}
      },
      "name": "default_tex0",
      "pbrMetallicRoughness": {
        "baseColorTexture": {
          "index": 0
        },
        "metallicFactor": 0.0
      }
    }
  ],
  "meshes": [
    {
      "name": "Object_0",
      "primitives": [
        {
          "attributes": {
            "NORMAL": 1,
            "POSITION": 0,
            "TEXCOORD_0": 2
          },
          "indices": 3,
          "material": 0,
          "mode": 4
        }
      ]
    },
    {
      "name": "Object_1",
      "primitives": [
        {
          "attributes": {
            "NORMAL": 5,
            "POSITION": 4,
            "TEXCOORD_0": 6
          },
          "indices": 7,
          "material": 0,
          "mode": 4
        }
      ]
    },
    {
      "name": "Object_2",
      "primitives": [
        {
          "attributes": {
            "NORMAL": 9,
            "POSITION": 8,
            "TEXCOORD_0": 10
          },
          "indices": 11,
          "material": 0,
          "mode": 4
        }
      ]
    },
    {
      "name": "Object_3",
      "primitives": [
        {
          "attributes": {
            "NORMAL": 13,
            "POSITION": 12,
            "TEXCOORD_0": 14
          },
          "indices": 15,
          "material": 0,
          "mode": 4
        }
      ]
    },
    {
      "name": "Object_4",
      "primitives": [
        {
          "attributes": {
            "NORMAL": 17,
            "POSITION": 16,
            "TEXCOORD_0": 18
          },
          "indices": 19,
          "material": 0,
          "mode": 4
        }
      ]
    },
    {
      "name": "Object_5",
      "primitives": [
        {
          "attributes": {
            "NORMAL": 21,
            "POSITION": 20,
            "TEXCOORD_0": 22
          },
          "indices": 23,
          "material": 0,
          "mode": 4
        }
      ]
    },
    {
      "name": "Object_6",
      "primitives": [
        {
          "attributes": {
            "NORMAL": 25,
            "POSITION": 24,
            "TEXCOORD_0": 26
          },
          "indices": 27,
          "material": 0,
          "mode": 4
        }
      ]
    }
  ],
  "nodes": [
    {
      "children": [
        1
      ],
      "matrix": [
        0.8243815302848816,
        -0.03904581815004361,
        0.5646861791610718,
        0.0,
        0.5625290870666504,
        -0.05434036627411824,
        -0.8249897956848145,
        0.0,
        0.06289765983819962,
        0.9977587461471558,
        -0.02283278480172135,
        0.0,
        0.0,
        0.0,
        0.0,
        1.0
      ],
      "name": "Sketchfab_model"
    },
    {
      "children": [
        2
      ],
      "name": "root"
    },
    {
      "children": [
        3
      ],
      "matrix": [
        1.0,
        0.0,
        0.0,
        0.0,
        0.0,
        2.220446049250313e-16,
        1.0,
        0.0,
        0.0,
        -1.0,
        2.220446049250313e-16,
        0.0,
        0.0,
        0.0,
        0.0,
        1.0
      ],
      "name": "GLTF_SceneRootNode"
    },
    {
      "children": [
        4,
        5,
        6,
        7,
        8,
        9,
        10
      ],
      "name": "_0"
    },
    {
      "mesh": 0,
      "name": "Object_4"
    },
    {
      "mesh": 1,
      "name": "Object_5"
    },
    {
      "mesh": 2,
      "name": "Object_6"
    },
    {
      "mesh": 3,
      "name": "Object_7"
    },
    {
      "mesh": 4,
      "name": "Object_8"
    },
    {
      "mesh": 5,
      "name": "Object_9"
    },
    {
      "mesh": 6,
      "name": "Object_10"
    }
  ],
  "samplers": [
    {
      "magFilter": 9729,
      "minFilter": 9729,
      "wrapS": 33071,
      "wrapT": 33071
    }
  ],
  "scene": 0,
  "scenes": [
    {
      "name": "Sketchfab_Scene",
      "nodes": [
        0
      ]
    }
  ],
  "textures": [
    {
      "sampler": 0,
      "source": 0
    }
  ]
}
